<?xml version="1.0" encoding="utf-8"?>
<!-- Generator: Adobe Illustrator 19.1.0, SVG Export Plug-In . SVG Version: 6.00 Build 0)  -->
<svg version="1.1" id="Layer_1" xmlns="http://www.w3.org/2000/svg" xmlns:xlink="http://www.w3.org/1999/xlink" x="0px" y="0px"
	 viewBox="0 0 90 90" style="enable-background:new 0 0 90 90;" xml:space="preserve">
<g>
	<path d="M45,41.4l8.8-8.8c-5.2-3.7-12.4-3.7-17.6,0L45,41.4z"/>
	<path d="M45,48.6l-8.8,8.8c5.2,3.7,12.4,3.7,17.6,0L45,48.6z"/>
	<path d="M86.5,62.5C91.7,50.3,91.1,36,85,24.3c-1.7-3.3-3.9-6.4-6.4-9.2l-2.4,2.4l-2.3,2.3l0,0l-0.1,0.1c6.1,6.9,9.5,16,9.5,25.2
		l0,0v0c0,9.2-3.4,18.3-9.5,25.2l0.1,0.1l4.7,4.7C81.9,71.3,84.6,67.1,86.5,62.5C88.8,57,85.4,65.2,86.5,62.5z"/>
	<path d="M16.2,70.2C6.5,59.1,4,42.9,10,29.5c1.6-3.5,3.6-6.8,6.2-9.7L11.4,15C-0.2,28-3.2,46.9,3.6,62.8c1.9,4.4,4.5,8.5,7.8,12.1
		L16.2,70.2z"/>
	<path d="M70.2,73.9L70.2,73.9C59.1,83.5,42.9,86,29.4,80c-3.5-1.6-6.8-3.6-9.7-6.2L15,78.6c12.9,11.5,31.9,14.6,47.8,7.8
		c4.4-1.9,8.5-4.5,12.1-7.8L70.2,73.9L70.2,73.9z"/>
	<path d="M20.4,15.7c11.2-9.4,27.2-11.6,40.5-5.6c3.4,1.5,6.5,3.6,9.3,6l0.1-0.1l0,0l4.7-4.7C62-0.2,43.1-3.2,27.2,3.6
		c-4.4,1.9-8.5,4.5-12.1,7.8l4.8,4.8C20,16,20.2,15.8,20.4,15.7z"/>
	<path d="M32.5,53.8l8.8-8.8l-8.8-8.8C28.8,41.4,28.8,48.6,32.5,53.8z"/>
	<path d="M60.1,43.2c-0.3-2.5-1.2-4.9-2.7-7L48.6,45l8.8,8.8C59.6,50.7,60.6,46.9,60.1,43.2z"/>
	<path d="M61.3,32.4l-0.1,0.1c5.6,7.3,5.6,17.8,0,25l0.1,0.1l8.9,8.9c8.1-9.4,10.2-23,5.3-34.4c-1.3-3.1-3.1-6.1-5.3-8.6L61.3,32.4z
		"/>
	<path d="M57.5,61.2c-4.8,3.7-11.1,5.1-17,3.8c-5.8-1.3-10.8-5.2-13.5-10.4c-2.9-5.4-3.1-12-0.7-17.6c2.2-5.2,6.6-9.3,12-11.2
		c6.5-2.3,13.9-1.1,19.3,3.1l9-9c-7.6-6.5-17.9-9.2-27.7-7.4c-9.4,1.8-17.8,7.8-22.6,16.1c-5.1,8.9-5.8,19.9-1.8,29.4
		c3.7,8.8,11.3,15.7,20.4,18.7c10.8,3.5,23,1,31.6-6.4L57.5,61.2z"/>
</g>
</svg>
