<?xml version="1.0" encoding="utf-8"?>
<!-- Generator: Adobe Illustrator 19.1.0, SVG Export Plug-In . SVG Version: 6.00 Build 0)  -->
<svg version="1.1" id="Layer_1" xmlns="http://www.w3.org/2000/svg" xmlns:xlink="http://www.w3.org/1999/xlink" x="0px" y="0px"
	 viewBox="-54 56 90 90" style="enable-background:new -54 56 90 90;" xml:space="preserve">
<g>
	<path d="M-9,97.4l8.8-8.8c-5.2-3.7-12.4-3.7-17.6,0L-9,97.4z"/>
	<path d="M-9,104.6l-8.8,8.8c5.2,3.7,12.4,3.7,17.6,0L-9,104.6z"/>
	<path d="M32.5,118.5c5.2-12.2,4.6-26.5-1.5-38.2c-1.7-3.3-3.9-6.4-6.4-9.2l-2.4,2.4l-2.3,2.3l0,0l-0.1,0.1c6.1,6.9,9.5,16,9.5,25.2
		l0,0l0,0c0,9.2-3.4,18.3-9.5,25.2l0.1,0.1l4.7,4.7C27.9,127.3,30.6,123.1,32.5,118.5C34.8,113,31.4,121.2,32.5,118.5z"/>
	<path d="M-37.8,126.2C-47.5,115.1-50,98.9-44,85.5c1.6-3.5,3.6-6.8,6.2-9.7l-4.8-4.8c-11.6,13-14.6,31.9-7.8,47.8
		c1.9,4.4,4.5,8.5,7.8,12.1L-37.8,126.2z"/>
	<path d="M16.2,129.9L16.2,129.9C5.1,139.5-11.1,142-24.6,136c-3.5-1.6-6.8-3.6-9.7-6.2l-4.7,4.8c12.9,11.5,31.9,14.6,47.8,7.8
		c4.4-1.9,8.5-4.5,12.1-7.8L16.2,129.9L16.2,129.9z"/>
	<path d="M-33.6,71.7c11.2-9.4,27.2-11.6,40.5-5.6c3.4,1.5,6.5,3.6,9.3,6l0.1-0.1l0,0l4.7-4.7C8,55.8-10.9,52.8-26.8,59.6
		c-4.4,1.9-8.5,4.5-12.1,7.8l4.8,4.8C-34,72-33.8,71.8-33.6,71.7z"/>
	<path d="M-21.5,109.8l8.8-8.8l-8.8-8.8C-25.2,97.4-25.2,104.6-21.5,109.8z"/>
	<path d="M6.1,99.2c-0.3-2.5-1.2-4.9-2.7-7l-8.8,8.8l8.8,8.8C5.6,106.7,6.6,102.9,6.1,99.2z"/>
	<path d="M7.3,88.4L7.3,88.4c5.5,7.4,5.5,17.9-0.1,25.1l0.1,0.1l8.9,8.9c8.1-9.4,10.2-23,5.3-34.4c-1.3-3.1-3.1-6.1-5.3-8.6
		L7.3,88.4z"/>
	<path d="M3.5,117.2c-4.8,3.7-11.1,5.1-17,3.8c-5.8-1.3-10.8-5.2-13.5-10.4c-2.9-5.4-3.1-12-0.7-17.6c2.2-5.2,6.6-9.3,12-11.2
		c6.5-2.3,13.9-1.1,19.3,3.1l9-9C5,69.4-5.3,66.7-15.1,68.5c-9.4,1.8-17.8,7.8-22.6,16.1c-5.1,8.9-5.8,19.9-1.8,29.4
		c3.7,8.8,11.3,15.7,20.4,18.7c10.8,3.5,23,1,31.6-6.4L3.5,117.2z"/>
</g>
</svg>
